<?xml version="1.0" standalone="no"?>
<!DOCTYPE svg PUBLIC "-//W3C//DTD SVG 20010904//EN"
 "http://www.w3.org/TR/2001/REC-SVG-20010904/DTD/svg10.dtd">
<svg version="1.0" xmlns="http://www.w3.org/2000/svg"
 width="796.000000pt" height="223.000000pt" viewBox="0 0 796.000000 223.000000"
 preserveAspectRatio="xMidYMid meet">

<g transform="translate(0.000000,223.000000) scale(0.100000,-0.100000)"
fill="#000000" stroke="none">
<path d="M5740 2160 c-417 -16 -508 -32 -603 -104 -87 -66 -144 -194 -166
-372 -44 -360 -30 -1050 25 -1244 25 -87 71 -175 109 -209 134 -118 301 -135
1325 -135 652 -1 1005 11 1129 35 82 17 136 43 192 96 85 79 127 189 151 398
18 150 18 860 0 1010 -31 262 -98 392 -237 460 -65 32 -125 42 -330 55 -223
14 -1308 21 -1595 10z m633 -431 c31 -14 57 -59 57 -99 0 -104 -121 -156 -194
-83 -94 94 15 238 137 182z m1279 -9 c56 -43 61 -125 10 -173 -35 -33 -72 -42
-116 -27 -51 17 -76 53 -76 111 0 40 5 52 31 78 26 26 38 31 78 31 33 0 56 -6
73 -20z m-792 -354 l5 -349 128 192 127 191 106 0 c81 0 105 -3 101 -12 -2 -7
-68 -105 -146 -217 -77 -113 -141 -207 -141 -210 0 -4 75 -94 168 -202 92
-107 173 -203 181 -212 12 -16 4 -17 -112 -17 l-125 0 -144 171 -143 171 -3
-171 -2 -171 -100 0 -100 0 0 595 0 596 98 -3 97 -3 5 -349z m-820 -291 l0
-545 -97 0 -98 0 -225 353 -225 353 -3 -353 -2 -353 -100 0 -100 0 0 535 0
535 98 0 98 0 225 -350 224 -349 3 318 2 318 88 41 c48 23 93 41 100 42 9 0
12 -115 12 -545z m372 -3 c3 -358 4 -362 59 -362 l29 0 0 -95 0 -95 -42 0
c-106 1 -174 34 -211 103 -21 41 -22 52 -25 410 l-3 367 95 0 95 0 3 -328z
m1268 5 c0 -357 2 -367 61 -367 l29 0 0 -95 0 -95 -48 0 c-114 0 -199 53 -221
137 -11 43 -28 702 -18 727 5 13 23 16 102 16 l95 0 0 -323z"/>
<path d="M60 1065 l0 -535 95 0 95 0 0 198 0 199 123 6 c186 9 276 47 338 145
38 60 53 132 47 234 -5 106 -40 176 -111 225 -74 50 -154 63 -386 63 l-201 0
0 -535z m440 350 c98 -57 92 -243 -9 -294 -33 -17 -59 -21 -141 -21 l-100 0 0
171 0 171 108 -3 c85 -3 114 -8 142 -24z"/>
<path d="M1140 1396 c-77 -23 -98 -34 -146 -78 -51 -47 -95 -126 -114 -206
-17 -74 -15 -244 5 -317 53 -198 220 -303 434 -274 207 29 321 185 321 439 -1
284 -125 437 -365 446 -56 3 -107 -1 -135 -10z m160 -167 c93 -21 140 -100
148 -244 10 -190 -59 -295 -192 -295 -141 0 -203 95 -194 297 7 169 50 227
188 252 3 0 25 -4 50 -10z"/>
<path d="M2125 1401 c-41 -11 -109 -46 -124 -65 -22 -26 -31 -18 -31 24 l0 40
-85 0 -85 0 0 -595 0 -595 95 0 95 0 0 189 0 189 68 -35 c59 -30 77 -34 143
-35 132 0 219 38 287 127 127 166 118 514 -17 668 -52 59 -126 89 -229 93 -48
2 -100 0 -117 -5z m130 -176 c13 -3 40 -19 60 -36 47 -42 67 -112 67 -237 -1
-121 -21 -182 -75 -226 -36 -29 -45 -31 -116 -31 -70 0 -81 3 -115 29 -53 40
-79 102 -84 205 -10 180 49 286 168 304 25 4 47 2 95 -8z"/>
<path d="M2895 1396 c-83 -19 -158 -53 -152 -69 49 -122 52 -128 72 -123 255
67 365 39 396 -99 7 -31 10 -57 7 -60 -3 -3 -25 2 -49 11 -29 11 -79 17 -149
18 -100 1 -109 -1 -173 -32 -110 -54 -154 -137 -145 -270 12 -162 124 -255
307 -254 92 0 145 13 195 47 l36 24 0 -29 0 -30 85 0 85 0 0 223 c0 372 -21
479 -109 567 -29 29 -66 54 -96 64 -67 24 -231 30 -310 12z m266 -502 c36 -18
49 -37 56 -78 14 -85 -47 -135 -166 -136 -106 0 -171 43 -171 115 0 35 20 72
47 90 52 34 175 39 234 9z"/>
<path d="M4297 1394 c-31 -7 -79 -23 -106 -35 l-49 -21 25 -61 c14 -34 28 -65
32 -70 4 -4 42 2 86 13 123 31 228 24 279 -19 27 -23 56 -90 56 -130 0 -28 -3
-32 -17 -26 -93 40 -255 42 -343 4 -171 -74 -215 -315 -81 -449 61 -61 125
-83 237 -82 97 0 145 13 197 54 l37 29 0 -36 0 -35 81 0 81 0 -4 298 c-4 280
-5 301 -28 365 -25 74 -82 147 -134 174 -83 43 -234 55 -349 27z m245 -490
c69 -14 103 -120 58 -177 -48 -61 -224 -64 -287 -5 -18 17 -23 32 -23 73 0 43
4 55 29 79 42 40 118 51 223 30z"/>
<path d="M3580 965 l0 -435 95 0 95 0 0 235 c0 129 5 256 11 284 21 100 77
149 179 158 l60 6 0 93 0 94 -43 0 c-67 0 -144 -27 -188 -67 l-39 -35 0 51 0
51 -85 0 -85 0 0 -435z"/>
</g>
</svg>
